<svg xmlns="http://www.w3.org/2000/svg" xmlns:xlink="http://www.w3.org/1999/xlink" width="2000" zoomAndPan="magnify" viewBox="0 0 1500 1499.999933" height="2000" preserveAspectRatio="xMidYMid meet" version="1.0"><defs><clipPath id="b1cb5adb32"><path d="M 859 238.332031 L 1124 238.332031 L 1124 890 L 859 890 Z M 859 238.332031 " clip-rule="nonzero"/></clipPath><clipPath id="95dc6776fa"><path d="M 57.679688 409 L 1442 409 L 1442 1261.332031 L 57.679688 1261.332031 Z M 57.679688 409 " clip-rule="nonzero"/></clipPath></defs><path fill="#edf4f7" d="M 285.953125 805.203125 L 287.246094 805.203125 C 297.773438 805.601562 307.691406 810.378906 314.554688 818.28125 L 427.410156 948.925781 L 427.410156 562.851562 L 163.828125 562.851562 L 163.828125 911.628906 L 259.1875 816.269531 C 266.300781 809.121094 275.824219 805.203125 285.953125 805.203125 Z M 285.953125 805.203125 " fill-opacity="1" fill-rule="nonzero"/><path fill="#edf4f7" d="M 775.472656 972.890625 L 775.472656 792.625 L 511.882812 792.625 L 511.882812 1046.726562 L 598.980469 1147.550781 Z M 775.472656 972.890625 " fill-opacity="1" fill-rule="nonzero"/><g clip-path="url(#b1cb5adb32)"><path fill="#edf4f7" d="M 1123.566406 238.433594 L 859.980469 238.433594 L 859.980469 889.28125 L 1123.566406 628.457031 Z M 1123.566406 238.433594 " fill-opacity="1" fill-rule="nonzero"/></g><g clip-path="url(#95dc6776fa)"><path fill="#edf4f7" d="M 1436.152344 416.617188 C 1431.546875 411.351562 1424.519531 408.929688 1417.617188 410.1875 L 1243.476562 442.453125 C 1232.679688 444.457031 1225.566406 454.832031 1227.570312 465.625 C 1229.574219 476.421875 1239.917969 483.539062 1250.714844 481.53125 L 1356.355469 461.980469 L 597.957031 1212.449219 L 300.953125 868.625 C 297.367188 864.4375 292.164062 861.957031 286.660156 861.746094 C 281.128906 861.570312 275.777344 863.664062 271.859375 867.578125 L 57.679688 1081.75 L 57.679688 1137.960938 L 284.867188 910.777344 L 581.78125 1254.511719 C 585.394531 1258.667969 590.539062 1261.148438 596.042969 1261.359375 C 601.546875 1261.539062 606.898438 1259.503906 610.816406 1255.648438 L 1379.195312 495.277344 L 1347.800781 592.632812 C 1344.421875 603.066406 1350.164062 614.28125 1360.597656 617.65625 C 1362.632812 618.316406 1364.691406 618.613281 1366.726562 618.613281 C 1375.101562 618.613281 1382.902344 613.261719 1385.625 604.828125 L 1440.132812 435.832031 C 1442.289062 429.164062 1440.789062 421.867188 1436.15625 416.605469 Z M 1436.152344 416.617188 " fill-opacity="1" fill-rule="nonzero"/></g></svg>